<mxfile host="app.diagrams.net" modified="2021-03-10T06:13:10.751Z" agent="5.0 (X11; Linux x86_64) AppleWebKit/537.36 (KHTML, like Gecko) Chrome/87.0.4280.141 Safari/537.36" etag="OWqjFJaOsy8dUJa6SDtw" version="14.4.6" type="github">
  <diagram id="4MpO-mHFq29Pg5PuqAJ6" name="Page-1">
    <mxGraphModel dx="1292" dy="693" grid="1" gridSize="10" guides="1" tooltips="1" connect="1" arrows="1" fold="1" page="1" pageScale="1" pageWidth="850" pageHeight="1100" math="0" shadow="0">
      <root>
        <mxCell id="0" />
        <mxCell id="1" parent="0" />
        <mxCell id="rAPLxB1WvlFLBNGbYPzv-1" value="Videos from client" style="rounded=0;whiteSpace=wrap;html=1;" vertex="1" parent="1">
          <mxGeometry x="200" y="230" width="120" height="60" as="geometry" />
        </mxCell>
        <mxCell id="rAPLxB1WvlFLBNGbYPzv-2" value="" style="endArrow=classic;html=1;entryX=0.5;entryY=0;entryDx=0;entryDy=0;exitX=0.5;exitY=1;exitDx=0;exitDy=0;" edge="1" parent="1" source="rAPLxB1WvlFLBNGbYPzv-1" target="rAPLxB1WvlFLBNGbYPzv-3">
          <mxGeometry width="50" height="50" relative="1" as="geometry">
            <mxPoint x="250" y="280" as="sourcePoint" />
            <mxPoint x="240" y="360" as="targetPoint" />
            <Array as="points" />
          </mxGeometry>
        </mxCell>
        <mxCell id="rAPLxB1WvlFLBNGbYPzv-3" value="Video convert&lt;br&gt;re-encoding&lt;br&gt;require 720p 10fps" style="rounded=0;whiteSpace=wrap;html=1;" vertex="1" parent="1">
          <mxGeometry x="200" y="320" width="120" height="60" as="geometry" />
        </mxCell>
        <mxCell id="rAPLxB1WvlFLBNGbYPzv-4" value="" style="endArrow=classic;html=1;exitX=0.5;exitY=1;exitDx=0;exitDy=0;" edge="1" parent="1" source="rAPLxB1WvlFLBNGbYPzv-3" target="rAPLxB1WvlFLBNGbYPzv-5">
          <mxGeometry width="50" height="50" relative="1" as="geometry">
            <mxPoint x="270" y="250" as="sourcePoint" />
            <mxPoint x="260" y="430" as="targetPoint" />
            <Array as="points" />
          </mxGeometry>
        </mxCell>
        <mxCell id="rAPLxB1WvlFLBNGbYPzv-5" value="Setup as RTSP Stream" style="rounded=0;whiteSpace=wrap;html=1;" vertex="1" parent="1">
          <mxGeometry x="200" y="410" width="120" height="60" as="geometry" />
        </mxCell>
        <mxCell id="rAPLxB1WvlFLBNGbYPzv-6" value="VLC Test RTSP Stream" style="rounded=0;whiteSpace=wrap;html=1;" vertex="1" parent="1">
          <mxGeometry x="200" y="500" width="120" height="60" as="geometry" />
        </mxCell>
        <mxCell id="rAPLxB1WvlFLBNGbYPzv-7" value="" style="endArrow=classic;html=1;exitX=0.5;exitY=1;exitDx=0;exitDy=0;entryX=0.5;entryY=0;entryDx=0;entryDy=0;" edge="1" parent="1" source="rAPLxB1WvlFLBNGbYPzv-5" target="rAPLxB1WvlFLBNGbYPzv-6">
          <mxGeometry width="50" height="50" relative="1" as="geometry">
            <mxPoint x="400" y="530" as="sourcePoint" />
            <mxPoint x="450" y="480" as="targetPoint" />
          </mxGeometry>
        </mxCell>
        <mxCell id="rAPLxB1WvlFLBNGbYPzv-8" value="Process in BYOAI" style="rounded=0;whiteSpace=wrap;html=1;" vertex="1" parent="1">
          <mxGeometry x="200" y="600" width="120" height="60" as="geometry" />
        </mxCell>
        <mxCell id="rAPLxB1WvlFLBNGbYPzv-10" value="" style="endArrow=classic;html=1;entryX=0.5;entryY=0;entryDx=0;entryDy=0;" edge="1" parent="1" target="rAPLxB1WvlFLBNGbYPzv-8">
          <mxGeometry relative="1" as="geometry">
            <mxPoint x="260" y="561" as="sourcePoint" />
            <mxPoint x="425" y="600" as="targetPoint" />
          </mxGeometry>
        </mxCell>
        <mxCell id="rAPLxB1WvlFLBNGbYPzv-11" value="Pass" style="edgeLabel;resizable=0;html=1;align=center;verticalAlign=middle;" connectable="0" vertex="1" parent="rAPLxB1WvlFLBNGbYPzv-10">
          <mxGeometry relative="1" as="geometry" />
        </mxCell>
        <mxCell id="rAPLxB1WvlFLBNGbYPzv-13" value="" style="endArrow=classic;html=1;exitX=0.5;exitY=1;exitDx=0;exitDy=0;entryX=1;entryY=0.5;entryDx=0;entryDy=0;" edge="1" parent="1" source="rAPLxB1WvlFLBNGbYPzv-6" target="rAPLxB1WvlFLBNGbYPzv-3">
          <mxGeometry relative="1" as="geometry">
            <mxPoint x="262.44000000000005" y="571.02" as="sourcePoint" />
            <mxPoint x="370" y="350" as="targetPoint" />
            <Array as="points">
              <mxPoint x="280" y="590" />
              <mxPoint x="370" y="590" />
              <mxPoint x="370" y="350" />
            </Array>
          </mxGeometry>
        </mxCell>
        <mxCell id="rAPLxB1WvlFLBNGbYPzv-14" value="Fail" style="edgeLabel;resizable=0;html=1;align=center;verticalAlign=middle;" connectable="0" vertex="1" parent="rAPLxB1WvlFLBNGbYPzv-13">
          <mxGeometry relative="1" as="geometry" />
        </mxCell>
        <mxCell id="rAPLxB1WvlFLBNGbYPzv-16" value="QA &amp;amp; Record Video" style="rounded=0;whiteSpace=wrap;html=1;" vertex="1" parent="1">
          <mxGeometry x="200" y="690" width="120" height="60" as="geometry" />
        </mxCell>
        <mxCell id="rAPLxB1WvlFLBNGbYPzv-17" value="" style="endArrow=classic;html=1;exitX=0.5;exitY=1;exitDx=0;exitDy=0;" edge="1" parent="1" source="rAPLxB1WvlFLBNGbYPzv-8" target="rAPLxB1WvlFLBNGbYPzv-16">
          <mxGeometry width="50" height="50" relative="1" as="geometry">
            <mxPoint x="270" y="480" as="sourcePoint" />
            <mxPoint x="270" y="510" as="targetPoint" />
          </mxGeometry>
        </mxCell>
        <mxCell id="rAPLxB1WvlFLBNGbYPzv-19" value="Send QA Result &amp;amp; Recorded Video" style="rounded=0;whiteSpace=wrap;html=1;" vertex="1" parent="1">
          <mxGeometry x="200" y="800" width="120" height="60" as="geometry" />
        </mxCell>
        <mxCell id="rAPLxB1WvlFLBNGbYPzv-22" value="" style="endArrow=classic;html=1;entryX=1;entryY=0.5;entryDx=0;entryDy=0;" edge="1" parent="1" target="rAPLxB1WvlFLBNGbYPzv-8">
          <mxGeometry relative="1" as="geometry">
            <mxPoint x="260" y="750" as="sourcePoint" />
            <mxPoint x="380" y="620" as="targetPoint" />
            <Array as="points">
              <mxPoint x="320" y="780" />
              <mxPoint x="400" y="780" />
              <mxPoint x="400" y="730" />
            </Array>
          </mxGeometry>
        </mxCell>
        <mxCell id="rAPLxB1WvlFLBNGbYPzv-23" value="If Accurary not enough =&amp;gt; Finetune" style="edgeLabel;resizable=0;html=1;align=center;verticalAlign=middle;" connectable="0" vertex="1" parent="rAPLxB1WvlFLBNGbYPzv-22">
          <mxGeometry relative="1" as="geometry" />
        </mxCell>
        <mxCell id="rAPLxB1WvlFLBNGbYPzv-25" value="" style="endArrow=classic;html=1;exitX=0.5;exitY=1;exitDx=0;exitDy=0;entryX=0.5;entryY=0;entryDx=0;entryDy=0;" edge="1" parent="1" source="rAPLxB1WvlFLBNGbYPzv-16" target="rAPLxB1WvlFLBNGbYPzv-19">
          <mxGeometry relative="1" as="geometry">
            <mxPoint x="260" y="750" as="sourcePoint" />
            <mxPoint x="480" y="730" as="targetPoint" />
          </mxGeometry>
        </mxCell>
        <mxCell id="rAPLxB1WvlFLBNGbYPzv-26" value="Pass" style="edgeLabel;resizable=0;html=1;align=center;verticalAlign=middle;" connectable="0" vertex="1" parent="rAPLxB1WvlFLBNGbYPzv-25">
          <mxGeometry relative="1" as="geometry" />
        </mxCell>
      </root>
    </mxGraphModel>
  </diagram>
</mxfile>
